<svg xmlns="http://www.w3.org/2000/svg" width="1200" height="680" viewBox="0 0 1200 680" role="img" aria-labelledby="title desc">
  <title id="title">ReMe auto memory and auto resource flow</title>
  <desc id="desc">A concise flow where conversations and dated resources are turned into daily cards, indexed by the daily page, and then used by downstream dream and search workflows.</desc>
  <defs>
    <style>
      .bg { fill: #f7f8fb; }
      .title { font: 700 28px -apple-system, BlinkMacSystemFont, "Segoe UI", sans-serif; fill: #172033; }
      .subtitle { font: 14px -apple-system, BlinkMacSystemFont, "Segoe UI", sans-serif; fill: #607086; }
      .step-num { font: 700 12px -apple-system, BlinkMacSystemFont, "Segoe UI", sans-serif; fill: #ffffff; }
      .step-title { font: 700 18px -apple-system, BlinkMacSystemFont, "Segoe UI", sans-serif; fill: #172033; }
      .step-subtitle { font: 13px -apple-system, BlinkMacSystemFont, "Segoe UI", sans-serif; fill: #607086; }
      .chip-title { font: 700 13px -apple-system, BlinkMacSystemFont, "Segoe UI", sans-serif; fill: #253246; }
      .chip-text { font: 12px -apple-system, BlinkMacSystemFont, "Segoe UI", sans-serif; fill: #627087; }
      .note { font: 12px -apple-system, BlinkMacSystemFont, "Segoe UI", sans-serif; fill: #5d6a7d; }
      .panel { fill: #ffffff; stroke: #d7dde7; stroke-width: 1.2; rx: 10; ry: 10; }
      .chip { fill: #f9fafc; stroke: #dfe5ee; stroke-width: 1; rx: 8; ry: 8; }
      .badge { fill: #44546a; }
      .arrow { stroke: #8794a8; stroke-width: 2; fill: none; marker-end: url(#arrow); }
      .soft-arrow { stroke: #a3adbd; stroke-width: 1.6; stroke-dasharray: 5 5; fill: none; marker-end: url(#arrow-soft); }
      .line { stroke: #e1e6ee; stroke-width: 1; }
    </style>
    <marker id="arrow" markerWidth="10" markerHeight="10" refX="8" refY="3" orient="auto" markerUnits="strokeWidth">
      <path d="M0,0 L0,6 L8,3 z" fill="#8794a8"/>
    </marker>
    <marker id="arrow-soft" markerWidth="10" markerHeight="10" refX="8" refY="3" orient="auto" markerUnits="strokeWidth">
      <path d="M0,0 L0,6 L8,3 z" fill="#a3adbd"/>
    </marker>
  </defs>

  <rect class="bg" x="0" y="0" width="1200" height="680"/>
  <text class="title" x="600" y="54" text-anchor="middle">Auto Memory &amp; Auto Resource</text>
  <text class="subtitle" x="600" y="80" text-anchor="middle">Conversations and dated resources become readable daily cards, then share one daily index and downstream memory flow.</text>

  <rect class="panel" x="60" y="132" width="225" height="300"/>
  <circle class="badge" cx="94" cy="170" r="15"/>
  <text class="step-num" x="94" y="174" text-anchor="middle">1</text>
  <text class="step-title" x="122" y="176">Conversations</text>
  <text class="step-subtitle" x="88" y="206">auto_memory</text>
  <rect class="chip" x="88" y="234" width="169" height="44"/>
  <text class="chip-title" x="172" y="253" text-anchor="middle">session input</text>
  <text class="chip-text" x="172" y="271" text-anchor="middle">conversation by id</text>
  <rect class="chip" x="88" y="302" width="169" height="44"/>
  <text class="chip-title" x="172" y="321" text-anchor="middle">memory card</text>
  <text class="chip-text" x="172" y="339" text-anchor="middle">daily/&lt;date&gt;/&lt;id&gt;.md</text>
  <rect class="chip" x="88" y="370" width="169" height="34"/>
  <text class="chip-text" x="172" y="392" text-anchor="middle">source: dialog jsonl</text>

  <rect class="panel" x="335" y="132" width="225" height="300"/>
  <circle class="badge" cx="369" cy="170" r="15"/>
  <text class="step-num" x="369" y="174" text-anchor="middle">2</text>
  <text class="step-title" x="397" y="176">Resources</text>
  <text class="step-subtitle" x="363" y="206">auto_resource</text>
  <rect class="chip" x="363" y="234" width="169" height="44"/>
  <text class="chip-title" x="447" y="253" text-anchor="middle">dated files</text>
  <text class="chip-text" x="447" y="271" text-anchor="middle">md / txt / csv / json</text>
  <rect class="chip" x="363" y="302" width="169" height="44"/>
  <text class="chip-title" x="447" y="321" text-anchor="middle">resource card</text>
  <text class="chip-text" x="447" y="339" text-anchor="middle">daily/&lt;date&gt;/&lt;name&gt;.md</text>
  <rect class="chip" x="363" y="370" width="169" height="34"/>
  <text class="chip-text" x="447" y="392" text-anchor="middle">source file stays put</text>

  <rect class="panel" x="610" y="132" width="225" height="300"/>
  <circle class="badge" cx="644" cy="170" r="15"/>
  <text class="step-num" x="644" y="174" text-anchor="middle">3</text>
  <text class="step-title" x="672" y="176">Daily Workbench</text>
  <text class="step-subtitle" x="638" y="206">daily/&lt;date&gt;/</text>
  <rect class="chip" x="638" y="234" width="169" height="44"/>
  <text class="chip-title" x="722" y="253" text-anchor="middle">shared index</text>
  <text class="chip-text" x="722" y="271" text-anchor="middle">daily/&lt;date&gt;.md</text>
  <rect class="chip" x="638" y="302" width="169" height="44"/>
  <text class="chip-title" x="722" y="321" text-anchor="middle">readable cards</text>
  <text class="chip-text" x="722" y="339" text-anchor="middle">facts, context, actions</text>
  <rect class="chip" x="638" y="370" width="169" height="34"/>
  <text class="chip-text" x="722" y="392" text-anchor="middle">one daily memory stream</text>

  <rect class="panel" x="885" y="132" width="255" height="300"/>
  <circle class="badge" cx="919" cy="170" r="15"/>
  <text class="step-num" x="919" y="174" text-anchor="middle">4</text>
  <text class="step-title" x="947" y="176">Downstream</text>
  <text class="step-subtitle" x="913" y="206">dream + search</text>
  <rect class="chip" x="913" y="234" width="199" height="44"/>
  <text class="chip-title" x="1012" y="253" text-anchor="middle">auto_dream</text>
  <text class="chip-text" x="1012" y="271" text-anchor="middle">daily to digest</text>
  <rect class="chip" x="913" y="302" width="199" height="44"/>
  <text class="chip-title" x="1012" y="321" text-anchor="middle">memory search</text>
  <text class="chip-text" x="1012" y="339" text-anchor="middle">daily + digest retrieval</text>
  <rect class="chip" x="913" y="370" width="199" height="34"/>
  <text class="chip-text" x="1012" y="392" text-anchor="middle">long-term memory path</text>

  <path class="arrow" d="M285 282 C316 282 318 456 448 456 C574 456 592 390 610 356"/>
  <path class="arrow" d="M560 316 C582 316 590 316 610 316"/>
  <path class="arrow" d="M835 282 H885"/>

  <rect class="panel" x="126" y="502" width="948" height="82"/>
  <text class="note" x="176" y="532">Conversation source</text>
  <text class="chip-text" x="176" y="554">reme_session/dialog/&lt;session_id&gt;.jsonl</text>
  <line class="line" x1="454" y1="518" x2="454" y2="566"/>
  <text class="chip-title" x="498" y="532">Resource source</text>
  <text class="chip-text" x="498" y="554">resource/&lt;date&gt;/&lt;resource_file&gt;</text>
  <line class="line" x1="796" y1="518" x2="796" y2="566"/>
  <text class="chip-title" x="838" y="532">Daily output</text>
  <text class="chip-text" x="838" y="554">daily cards plus daily/&lt;date&gt;.md</text>

  <path class="soft-arrow" d="M172 432 C172 470 326 470 447 432"/>
  <text class="note" x="310" y="474" text-anchor="middle">both flows preserve original sources for verification</text>
</svg>
